<?xml version="1.0" encoding="UTF-8"?>
<svg id="_レイヤー_2" data-name="レイヤー 2" xmlns="http://www.w3.org/2000/svg" viewBox="0 0 23.01 25.63">
  <defs>
    <style>
      .cls-1 {
        fill: #000;
        stroke-width: 0px;
      }
    </style>
  </defs>
  <g id="_レイヤー_6" data-name="レイヤー 6">
    <path class="cls-1" d="M22.75,23.09l-9.92-10.34L21.54,1.52c.33-.43.23-1.03-.24-1.34-.47-.31-1.11-.21-1.45.22l-8.43,10.88L1.81,1.27c-.38-.4-1.04-.43-1.47-.08-.43.35-.47.96-.09,1.36l9.92,10.34L1.47,24.11c-.33.43-.23,1.03.24,1.34.18.12.4.18.6.18.32,0,.64-.14.84-.4l8.43-10.88,9.61,10.01c.2.21.49.32.78.32.25,0,.49-.08.69-.24.43-.35.47-.96.09-1.36Z"/>
  </g>
</svg>